<?xml version="1.0" encoding="UTF-8"?>
<svg id="Capa_2" data-name="Capa 2" xmlns="http://www.w3.org/2000/svg" width="30.82" height="25.35" viewBox="0 0 30.82 25.35">
  <defs>
    <style>
      .cls-1 {
        fill: none;
        stroke: #ffc400;
        stroke-width: 5px;
      }

      .cls-2 {
        fill: #000;
        stroke-width: 0px;
      }

      .cls-3 {
        opacity: .33;
      }
    </style>
  </defs>
  <g id="Capa_2-2" data-name="Capa 2">
    <g>
      <g class="cls-3">
        <path class="cls-1" d="M29.32,3H1.5c-.83,0-1.5-.67-1.5-1.5S.67,0,1.5,0h27.82c.83,0,1.5.67,1.5,1.5s-.67,1.5-1.5,1.5Z"/>
        <path class="cls-1" d="M29.32,14.17H1.5c-.83,0-1.5-.67-1.5-1.5s.67-1.5,1.5-1.5h27.82c.83,0,1.5.67,1.5,1.5s-.67,1.5-1.5,1.5Z"/>
        <path class="cls-1" d="M29.32,25.35H1.5c-.83,0-1.5-.67-1.5-1.5s.67-1.5,1.5-1.5h27.82c.83,0,1.5.67,1.5,1.5s-.67,1.5-1.5,1.5Z"/>
      </g>
      <g>
        <path class="cls-2" d="M29.32,3H1.5c-.83,0-1.5-.67-1.5-1.5S.67,0,1.5,0h27.82c.83,0,1.5.67,1.5,1.5s-.67,1.5-1.5,1.5Z"/>
        <path class="cls-2" d="M29.32,14.17H1.5c-.83,0-1.5-.67-1.5-1.5s.67-1.5,1.5-1.5h27.82c.83,0,1.5.67,1.5,1.5s-.67,1.5-1.5,1.5Z"/>
        <path class="cls-2" d="M29.32,25.35H1.5c-.83,0-1.5-.67-1.5-1.5s.67-1.5,1.5-1.5h27.82c.83,0,1.5.67,1.5,1.5s-.67,1.5-1.5,1.5Z"/>
      </g>
    </g>
  </g>
</svg>